<?xml version="1.0" standalone="no"?>
<!DOCTYPE svg PUBLIC "-//W3C//DTD SVG 20010904//EN"
 "http://www.w3.org/TR/2001/REC-SVG-20010904/DTD/svg10.dtd">
<svg version="1.0" xmlns="http://www.w3.org/2000/svg"
 width="506.000000pt" height="506.000000pt" viewBox="0 0 506.000000 506.000000"
 preserveAspectRatio="xMidYMid meet">
<metadata>
Created by potrace 1.14, written by Peter Selinger 2001-2017
</metadata>
<g transform="translate(0.000000,506.000000) scale(0.100000,-0.100000)"
fill="#000000" stroke="none">
<path d="M1982 5023 c-6 -16 -41 -52 -78 -82 -45 -38 -67 -64 -71 -84 -6 -29
-8 -31 -55 -41 -15 -4 -56 -33 -91 -66 -63 -59 -159 -107 -200 -101 -10 1 -37
-17 -63 -43 -41 -41 -50 -46 -92 -46 -54 0 -64 -5 -95 -46 -20 -26 -27 -29
-82 -29 -56 0 -60 -2 -63 -24 -2 -13 6 -36 17 -52 l22 -29 -45 0 c-36 0 -48
-4 -57 -21 -9 -17 -7 -25 10 -43 12 -12 21 -24 21 -27 0 -2 -20 -3 -45 -1 -58
5 -98 -5 -92 -22 3 -8 -13 -21 -45 -34 l-50 -21 7 -118 c3 -65 8 -140 10 -168
2 -27 7 -102 10 -165 3 -63 8 -142 10 -175 2 -33 7 -100 10 -150 3 -49 8 -117
10 -150 3 -33 7 -103 10 -155 2 -52 7 -115 9 -140 3 -25 8 -81 11 -125 8 -110
13 -131 36 -176 17 -34 42 -116 54 -177 8 -44 19 -169 30 -347 3 -60 8 -137
10 -170 3 -33 7 -98 10 -145 3 -47 7 -114 10 -150 12 -192 17 -274 20 -355 13
-309 15 -368 20 -440 6 -100 16 -229 20 -275 4 -44 15 -241 19 -342 2 -44 9
-84 17 -95 13 -18 112 -56 160 -62 5 0 8 -5 5 -9 -3 -5 5 -8 17 -7 12 1 34 -4
49 -12 15 -7 30 -13 33 -13 18 1 54 -14 49 -21 -3 -5 2 -6 10 -3 9 3 24 3 34
-2 15 -7 143 -11 390 -14 55 -1 90 -5 87 -11 -4 -5 -1 -9 4 -9 6 0 11 4 11 9
0 6 26 10 58 10 67 1 110 6 172 22 25 6 56 13 70 15 14 3 33 7 43 10 10 3 32
8 50 10 99 15 180 40 198 63 13 16 22 51 33 133 1 3 4 9 8 13 4 4 4 14 1 23
-4 8 -2 13 3 9 6 -3 8 8 6 29 -3 26 0 34 11 34 8 0 17 3 20 8 2 4 2 1 0 -6 -1
-7 2 -10 7 -7 6 3 13 -1 16 -9 3 -9 13 -16 22 -16 13 0 13 2 -3 14 -18 13 -32
51 -14 40 5 -3 9 0 9 5 0 6 7 11 16 11 8 0 12 4 9 10 -4 6 1 7 11 3 14 -5 16
-3 11 11 -4 11 -3 15 4 11 6 -4 13 3 16 14 3 12 11 20 19 19 7 -2 13 2 12 7 0
10 -1 10 -33 0 -18 -6 -18 -5 -3 5 9 6 15 17 12 24 -3 8 0 17 7 22 9 5 10 2 6
-9 -4 -10 -1 -17 6 -17 7 0 18 -9 25 -21 8 -12 9 -18 3 -14 -7 3 -11 -2 -11
-15 0 -12 4 -19 9 -16 7 5 21 -14 25 -34 1 -3 5 -11 10 -19 5 -8 5 -12 0 -9
-5 3 -18 -4 -28 -15 -16 -17 -17 -19 -3 -14 11 4 17 1 17 -9 0 -12 -4 -12 -20
-4 -24 13 -26 26 -5 34 8 3 15 13 15 21 0 12 -6 15 -22 10 -21 -5 -21 -5 2 9
14 9 21 16 15 16 -5 1 -20 3 -32 6 -15 2 -27 -4 -38 -19 -8 -12 -18 -21 -20
-19 -15 7 -24 0 -18 -15 5 -12 3 -14 -7 -8 -9 5 -11 4 -6 -3 11 -19 26 -14 26
9 0 11 4 18 9 14 5 -3 12 -1 16 5 3 5 11 10 17 10 7 0 6 -5 -2 -15 -6 -8 -9
-19 -5 -25 3 -5 1 -10 -4 -10 -13 0 -14 -20 -1 -40 7 -12 12 -12 22 -2 13 13
48 17 48 4 0 -4 -5 -13 -11 -19 -6 -6 -8 -16 -5 -22 9 -15 36 -2 36 18 1 14 2
14 11 -1 6 -11 16 -15 26 -11 9 4 14 2 10 -3 -3 -6 5 -10 18 -10 16 0 21 4 17
14 -4 11 -1 12 14 4 10 -5 27 -8 37 -7 9 2 15 -1 11 -6 -3 -5 -1 -9 5 -9 5 0
12 4 15 9 5 8 14 8 45 2 2 -1 -2 -9 -9 -18 -7 -10 0 -4 15 12 16 17 31 30 34
30 14 1 51 31 51 41 0 6 7 17 15 24 8 7 12 16 9 21 -3 5 2 6 10 3 9 -3 14 -11
13 -17 -1 -6 8 -12 20 -13 12 -1 20 2 17 7 -2 4 -12 5 -21 2 -10 -4 -14 -2 -9
5 3 6 2 13 -4 17 -5 3 -10 11 -10 16 0 5 11 3 24 -6 21 -14 24 -14 36 0 7 9 9
15 4 14 -21 -4 -28 2 -14 12 13 9 13 10 0 6 -8 -2 -14 -10 -13 -16 2 -6 -1
-11 -7 -11 -5 0 -9 10 -8 23 2 20 7 23 35 21 18 -1 30 2 27 7 -3 5 0 9 5 9 6
0 11 5 11 12 0 6 -9 3 -20 -7 -20 -18 -20 -17 -20 11 0 22 3 26 10 14 8 -13
10 -12 10 4 0 14 3 16 13 8 9 -8 17 -8 27 0 13 8 12 9 -2 5 -9 -3 -19 1 -22 8
-7 18 14 31 24 15 5 -8 9 -7 14 5 8 23 8 27 -4 20 -16 -10 -11 1 7 16 11 10
14 10 9 1 -5 -8 -1 -12 10 -12 16 0 16 -2 -1 -20 -10 -11 -15 -23 -12 -27 4
-3 7 -1 7 6 0 7 5 9 12 5 6 -4 8 -3 5 3 -4 6 0 14 9 17 22 9 23 9 49 -20 21
-22 23 -23 18 -5 -3 12 -10 21 -15 21 -5 0 -6 5 -3 10 5 8 11 8 20 0 9 -8 14
-7 18 4 4 11 1 13 -11 9 -14 -6 -15 -4 -5 9 7 8 10 18 7 21 -4 3 3 5 15 4 15
-1 19 -6 16 -19 -4 -11 1 -21 15 -28 13 -7 20 -7 20 0 0 5 -7 10 -15 10 -8 0
-15 5 -15 11 0 5 4 7 10 4 6 -4 7 1 3 11 -4 12 -3 15 6 10 7 -5 16 -18 21 -30
8 -20 9 -20 10 -1 0 17 2 18 11 5 8 -12 9 -11 7 5 -2 15 2 19 20 18 12 -2 22
2 22 8 0 5 -4 8 -9 4 -5 -3 -12 3 -16 14 -7 24 -37 22 -52 -4 -11 -19 -12 -19
-19 -2 -5 14 -9 15 -15 6 -4 -7 -17 -13 -28 -14 -25 -2 -48 20 -31 30 6 4 10
3 9 -2 -4 -21 3 -24 19 -6 9 10 13 13 8 6 -11 -17 4 -16 28 2 10 8 22 12 26
10 5 -3 11 2 14 10 4 11 13 14 29 10 15 -4 28 -1 36 8 6 9 21 13 34 10 18 -4
19 -3 7 7 -12 9 -11 10 7 5 12 -3 24 -1 27 4 4 5 16 8 28 6 12 -3 28 1 37 8
12 9 13 9 7 0 -4 -7 -3 -13 3 -13 5 0 12 4 16 10 3 5 13 6 22 3 12 -5 14 -3 8
7 -5 8 -4 11 3 6 5 -3 13 0 16 6 3 7 3 2 0 -11 -6 -21 -4 -22 9 -10 8 8 13 16
11 18 -6 7 69 40 78 35 3 -2 13 5 21 16 7 11 17 17 20 13 4 -3 7 -1 7 5 0 7
14 25 31 42 18 16 28 30 24 30 -5 0 0 7 11 16 10 8 12 13 4 9 -10 -4 -9 -2 2
8 10 8 14 18 10 22 -4 5 0 6 8 3 12 -4 15 1 14 21 0 14 4 29 10 33 12 8 14
128 3 173 -19 75 -20 96 -5 90 9 -4 20 -16 25 -28 9 -20 10 -19 11 11 0 18 8
39 16 48 9 8 16 13 16 9 0 -12 59 26 79 51 27 34 27 48 0 34 -35 -19 -133 -35
-124 -20 3 6 -1 7 -10 4 -23 -9 -65 4 -65 21 0 8 -3 15 -8 15 -4 0 -16 16 -26
35 l-19 35 32 30 c35 34 47 58 67 140 21 86 19 100 -13 93 -74 -14 -93 -26
-159 -97 -34 -36 -66 -66 -72 -66 -7 0 -9 21 -5 64 5 62 -5 96 -55 175 -1 3
-9 -4 -16 -15 -8 -10 -22 -28 -31 -39 -14 -17 -16 -17 -11 -2 3 9 1 17 -4 17
-6 0 -9 6 -7 12 5 27 -39 17 -77 -17 -21 -19 -42 -35 -46 -35 -5 0 -18 13 -29
28 -15 22 -17 32 -9 40 7 7 8 15 4 19 -12 12 -44 -38 -41 -64 1 -14 -4 -27
-14 -32 -23 -11 -46 -8 -47 7 -3 25 -4 25 -18 7 -13 -18 -14 -18 -27 3 -9 15
-17 18 -25 11 -8 -7 -14 -6 -19 1 -3 5 -2 10 4 10 5 0 19 20 31 44 18 38 21
59 18 140 -2 53 -7 96 -11 96 -4 0 -20 -8 -35 -17 -70 -43 -104 -93 -104 -149
0 -19 -4 -37 -9 -40 -10 -6 -24 25 -59 127 -12 36 -29 74 -36 84 -13 18 -15
18 -33 1 -27 -24 -53 -83 -59 -129 -4 -42 16 -82 48 -92 32 -10 23 -26 -12
-20 -18 3 -41 16 -50 28 -20 26 -42 99 -42 142 0 38 22 104 43 129 15 18 15
18 -4 8 -35 -18 -71 -68 -81 -113 -2 -10 -6 -28 -8 -39 -3 -11 0 -22 5 -25 5
-4 7 -11 3 -16 -4 -6 -14 -4 -28 5 -31 20 -46 7 -40 -34 12 -75 13 -72 -43
-75 -28 -2 -61 -9 -73 -15 l-22 -12 6 84 c4 45 9 112 12 148 2 36 7 94 10 130
2 36 6 85 9 110 2 25 7 77 10 115 12 154 28 222 85 340 40 85 45 115 55 355 3
58 7 137 9 175 3 39 8 120 11 180 4 61 8 128 10 151 4 42 14 195 20 299 2 33
6 108 10 166 6 86 4 108 -8 120 -8 8 -14 27 -14 42 0 38 -25 71 -70 92 -21 10
-46 24 -55 33 -16 14 -16 16 7 44 14 16 25 36 25 44 0 18 -36 40 -80 49 -19 4
-61 20 -92 36 -50 25 -58 33 -58 57 0 34 -27 65 -82 93 -22 11 -51 33 -64 49
-19 22 -81 58 -114 65 -3 0 -14 6 -25 12 -11 6 -22 12 -25 12 -41 11 -49 16
-52 34 -5 31 -46 55 -118 67 -36 7 -82 17 -102 22 -47 14 -82 50 -75 78 8 29
-6 25 -21 -7z m1722 -3288 c-4 -8 -8 -15 -10 -15 -2 0 -4 7 -4 15 0 8 4 15 10
15 5 0 7 -7 4 -15z m-260 -1089 c19 -7 19 -7 0 -27 -16 -16 -25 -18 -46 -10
-23 9 -36 41 -15 41 5 0 6 -7 3 -16 -4 -9 -2 -13 5 -8 6 4 15 0 20 -7 7 -11 9
-11 9 -1 0 7 4 11 9 7 5 -3 12 -1 15 4 3 4 -2 8 -12 7 -17 -1 -22 5 -22 27 0
8 3 8 8 1 4 -6 16 -14 26 -18z m121 4 c-10 -11 -22 -17 -28 -13 -8 5 -7 8 1
11 7 2 10 8 6 13 -3 5 5 9 17 9 21 0 22 -1 4 -20z m-755 -190 c0 -5 -2 -10 -4
-10 -3 0 -8 5 -11 10 -3 6 -1 10 4 10 6 0 11 -4 11 -10z m30 -31 c0 -4 -7 -10
-16 -13 -9 -3 -14 -13 -11 -20 7 -19 -18 -42 -28 -26 -4 6 -2 17 4 24 6 7 8
16 5 19 -3 3 -4 10 -1 14 6 10 47 12 47 2z m60 -34 c9 -10 9 -15 1 -15 -6 0
-11 -5 -11 -11 0 -5 5 -7 10 -4 6 3 10 1 10 -5 0 -6 4 -9 9 -6 5 3 11 -3 14
-15 4 -16 3 -18 -8 -9 -8 7 -20 8 -26 4 -7 -4 -10 -3 -7 2 3 5 0 14 -7 21 -10
9 -15 6 -24 -14 -7 -14 -14 -23 -17 -20 -7 7 26 57 37 57 5 0 9 5 9 11 0 5 -4
8 -9 4 -5 -3 -12 -1 -16 5 -10 16 21 12 35 -5z"/>
<path d="M3607 708 c-10 -11 -16 -22 -13 -25 3 -4 6 -3 6 1 0 4 8 0 18 -10 9
-10 17 -21 17 -26 0 -16 18 -12 21 5 1 9 -1 15 -6 12 -4 -2 -15 4 -24 14 -16
18 -16 20 0 29 9 5 13 11 8 14 -5 3 -17 -4 -27 -14z"/>
<path d="M3691 713 c-1 -18 13 -23 29 -11 12 8 12 9 -2 5 -9 -3 -19 -1 -22 6
-3 9 -5 9 -5 0z"/>
<path d="M3550 699 c0 -5 5 -7 10 -4 6 3 10 8 10 11 0 2 -4 4 -10 4 -5 0 -10
-5 -10 -11z"/>
<path d="M3754 702 c4 -3 14 -7 22 -8 9 -1 13 0 10 4 -4 3 -14 7 -22 8 -9 1
-13 0 -10 -4z"/>
<path d="M3638 693 c7 -3 16 -2 19 1 4 3 -2 6 -13 5 -11 0 -14 -3 -6 -6z"/>
<path d="M3815 691 c-3 -5 -2 -12 3 -15 5 -3 9 1 9 9 0 17 -3 19 -12 6z"/>
<path d="M3670 681 c0 -6 4 -12 8 -15 5 -3 9 1 9 9 0 8 -4 15 -9 15 -4 0 -8
-4 -8 -9z"/>
<path d="M3747 679 c7 -7 15 -10 18 -7 3 3 -2 9 -12 12 -14 6 -15 5 -6 -5z"/>
<path d="M3753 645 c0 -8 4 -12 9 -9 5 3 6 10 3 15 -9 13 -12 11 -12 -6z"/>
<path d="M3675 640 c3 -5 8 -10 11 -10 2 0 4 5 4 10 0 6 -5 10 -11 10 -5 0 -7
-4 -4 -10z"/>
<path d="M3610 626 c0 -2 7 -7 16 -10 8 -3 12 -2 9 4 -6 10 -25 14 -25 6z"/>
<path d="M3576 601 c-3 -5 1 -14 8 -20 10 -9 16 -9 21 -1 4 6 1 9 -7 8 -7 -2
-12 3 -10 10 2 14 -4 16 -12 3z"/>
<path d="M3735 601 c-3 -5 -2 -12 3 -15 5 -3 9 1 9 9 0 17 -3 19 -12 6z"/>
<path d="M3390 580 c0 -5 5 -10 11 -10 5 0 7 5 4 10 -3 6 -8 10 -11 10 -2 0
-4 -4 -4 -10z"/>
<path d="M3540 575 c-11 -13 -10 -14 4 -9 9 3 16 10 16 15 0 13 -6 11 -20 -6z"/>
<path d="M3480 560 c-9 -6 -10 -10 -3 -10 6 0 15 5 18 10 8 12 4 12 -15 0z"/>
<path d="M3361 547 c-32 -16 -57 -54 -37 -54 8 0 12 6 8 15 -4 11 -1 13 8 7 9
-5 11 -4 6 3 -4 8 3 16 18 22 14 5 26 12 26 15 0 7 -2 6 -29 -8z"/>
<path d="M3416 542 c-3 -5 1 -9 9 -9 8 0 12 4 9 9 -3 4 -7 8 -9 8 -2 0 -6 -4
-9 -8z"/>
<path d="M3616 533 c-6 -14 -5 -15 5 -6 7 7 10 15 7 18 -3 3 -9 -2 -12 -12z"/>
<path d="M3376 498 c3 -5 10 -6 15 -3 13 9 11 12 -6 12 -8 0 -12 -4 -9 -9z"/>
<path d="M3333 467 c0 -7 9 -14 20 -14 11 -1 18 -1 16 0 -2 2 -11 8 -20 15
-12 9 -16 9 -16 -1z"/>
<path d="M3270 425 c0 -7 30 -13 34 -7 3 4 -4 9 -15 9 -10 1 -19 0 -19 -2z"/>
<path d="M3189 408 c-7 -29 -5 -36 7 -31 16 6 18 19 4 28 -5 3 -10 5 -11 3z"/>
<path d="M3273 395 c0 -8 4 -12 9 -9 5 3 6 10 3 15 -9 13 -12 11 -12 -6z"/>
<path d="M2676 373 c-6 -14 -5 -15 5 -6 7 7 10 15 7 18 -3 3 -9 -2 -12 -12z"/>
<path d="M2746 373 c-6 -14 -5 -15 5 -6 7 7 10 15 7 18 -3 3 -9 -2 -12 -12z"/>
<path d="M2695 360 c-3 -5 -1 -10 4 -10 6 0 11 5 11 10 0 6 -2 10 -4 10 -3 0
-8 -4 -11 -10z"/>
<path d="M3199 353 c-13 -16 -12 -17 4 -4 16 13 21 21 13 21 -2 0 -10 -8 -17
-17z"/>
<path d="M3233 363 c4 -3 1 -13 -6 -22 -11 -14 -10 -14 5 -2 16 12 16 31 1 31
-4 0 -3 -3 0 -7z"/>
<path d="M2815 349 c-4 -6 -5 -12 -2 -15 2 -3 7 2 10 11 7 17 1 20 -8 4z"/>
<path d="M3166 343 c-6 -14 -5 -15 5 -6 7 7 10 15 7 18 -3 3 -9 -2 -12 -12z"/>
<path d="M2730 339 c0 -4 11 -6 24 -5 13 0 22 4 20 8 -6 9 -44 6 -44 -3z"/>
<path d="M3114 326 c1 -8 5 -18 8 -22 4 -3 5 1 4 10 -1 8 -5 18 -8 22 -4 3 -5
-1 -4 -10z"/>
<path d="M2977 303 c3 -7 6 -13 8 -13 2 0 5 6 8 13 3 8 -1 14 -8 14 -7 0 -11
-6 -8 -14z"/>
<path d="M2894 296 c1 -8 5 -18 8 -22 4 -3 5 1 4 10 -1 8 -5 18 -8 22 -4 3 -5
-1 -4 -10z"/>
<path d="M3035 301 c-3 -5 -2 -12 3 -15 5 -3 9 1 9 9 0 17 -3 19 -12 6z"/>
</g>
</svg>
